#Comment line ignore any data following # character 
#Hierarchical Translation and Rotation (.htr) file 
[Header]	
#Header keywords are followed by a single value 
FileType HTR		#Single word string
DataType HTRS		#Translation followed by rotation and scale data
FileVersion 1		#integer
NumSegments 84		#integer
NumFrames 2		#integer
DataFrameRate 30		#integer, data frame rate in this file
EulerRotationOrder ZYX
CalibrationUnits mm
RotationUnits Degrees
GlobalAxisofGravity Y
BoneLengthAxis Y
ScaleFactor 1.00
[SegmentNames&Hierarchy]
#CHILD	PARENT
MASTER GLOBAL
root MASTER
chest root
L_mid_tent01 root
R_mid_tent01 root
spine01 root
Bip01_Neck chest
L_humerus chest
R_humerus chest
weapon_bone chest
Bip01_Head Bip01_Neck
eye_left_bone Bip01_Head
eye_right_bone Bip01_Head
L_forearm L_humerus
L_front_hand L_forearm
L_weapon_bone L_forearm
L_front_hand01_01 L_front_hand
L_front_hand02_01 L_front_hand
L_front_hand03_01 L_front_hand
L_front_hand01_02 L_front_hand01_01
L_front_hand02_02 L_front_hand02_01
L_front_hand03_02 L_front_hand03_01
R_forearm R_humerus
R_front_hand R_forearm
R_weapon_bone R_forearm
R_front_hand01_01 R_front_hand
R_front_hand02_01 R_front_hand
R_front_hand03_01 R_front_hand
R_front_hand01_02 R_front_hand01_01
R_front_hand02_02 R_front_hand02_01
R_front_hand03_02 R_front_hand03_01
null_rope01_connect L_mid_tent01
Rope1_Seg01 null_rope01_connect
Rope1_Seg02 Rope1_Seg01
Rope1_Seg03 Rope1_Seg02
Rope1_Seg04 Rope1_Seg03
Rope1_Seg05 Rope1_Seg04
Rope1_Seg06 Rope1_Seg05
Rope1_Seg07 Rope1_Seg06
Rope1_Seg09 Rope1_Seg07
L_mid_hand01 Rope1_Seg09
L_mid_hand02 Rope1_Seg09
L_mid_hand03 Rope1_Seg09
null_rope02_connect R_mid_tent01
Rope2_Seg01 null_rope02_connect
Rope2_Seg02 Rope2_Seg01
Rope2_Seg03 Rope2_Seg02
Rope2_Seg04 Rope2_Seg03
Rope2_Seg05 Rope2_Seg04
Rope2_Seg06 Rope2_Seg05
Rope2_Seg07 Rope2_Seg06
Rope2_Seg09 Rope2_Seg07
R_mid_hand01 Rope2_Seg09
R_mid_hand02 Rope2_Seg09
R_mid_hand03 Rope2_Seg09
spine02 spine01
spine03 spine02
pelvis spine03
null_rope03_connect pelvis
null_rope04_connect pelvis
Rope3_Seg01 null_rope03_connect
Rope3_Seg02 Rope3_Seg01
Rope3_Seg03 Rope3_Seg02
Rope3_Seg04 Rope3_Seg03
Rope3_Seg05 Rope3_Seg04
Rope3_Seg06 Rope3_Seg05
Rope3_Seg07 Rope3_Seg06
Rope3_Seg08 Rope3_Seg07
Rope3_Seg09 Rope3_Seg08
R_rear_hand01 Rope3_Seg09
R_rear_hand02 Rope3_Seg09
R_rear_hand03 Rope3_Seg09
Rope4_Seg01 null_rope04_connect
Rope4_Seg02 Rope4_Seg01
Rope4_Seg03 Rope4_Seg02
Rope4_Seg04 Rope4_Seg03
Rope4_Seg05 Rope4_Seg04
Rope4_Seg06 Rope4_Seg05
Rope4_Seg07 Rope4_Seg06
Rope4_Seg08 Rope4_Seg07
Rope4_Seg09 Rope4_Seg08
L_rear_hand01 Rope4_Seg09
L_rear_hand02 Rope4_Seg09
L_rear_hand03 Rope4_Seg09
[BasePosition]
#SegmentName Tx, Ty, Tz, Rx, Ry, Rz, BoneLength
MASTER 0.000000 0.000000 0.000000 -90.000000 0.000000 0.000000 10.000000 
root 0.000000 0.000000 0.000000 0.000000 0.000000 0.000000 10.000000 
chest 0.000000 0.000000 0.000000 0.000000 0.000000 0.000000 10.000000 
L_mid_tent01 0.000000 0.000000 0.000000 0.000000 0.000000 0.000000 10.000000 
R_mid_tent01 0.000000 0.000000 0.000000 0.000000 0.000000 0.000000 10.000000 
spine01 0.000000 0.000000 0.000000 0.000000 0.000000 0.000000 10.000000 
Bip01_Neck 0.000000 0.000000 0.000000 0.000000 0.000000 0.000000 10.000000 
L_humerus 0.000000 0.000000 0.000000 0.000000 0.000000 0.000000 10.000000 
R_humerus 0.000000 0.000000 0.000000 0.000000 0.000000 0.000000 10.000000 
weapon_bone 0.000000 0.000000 0.000000 0.000000 0.000000 0.000000 10.000000 
Bip01_Head 0.000000 0.000000 0.000000 0.000000 0.000000 0.000000 10.000000 
eye_left_bone 0.000000 0.000000 0.000000 0.000000 0.000000 0.000000 10.000000 
eye_right_bone 0.000000 0.000000 0.000000 0.000000 0.000000 0.000000 10.000000 
L_forearm 0.000000 0.000000 0.000000 0.000000 0.000000 0.000000 10.000000 
L_front_hand 0.000000 0.000000 0.000000 0.000000 0.000000 0.000000 10.000000 
L_weapon_bone 0.000000 0.000000 0.000000 0.000000 0.000000 0.000000 10.000000 
L_front_hand01_01 0.000000 0.000000 0.000000 0.000000 0.000000 0.000000 10.000000 
L_front_hand02_01 0.000000 0.000000 0.000000 0.000000 0.000000 0.000000 10.000000 
L_front_hand03_01 0.000000 0.000000 0.000000 0.000000 0.000000 0.000000 10.000000 
L_front_hand01_02 0.000000 0.000000 0.000000 0.000000 0.000000 0.000000 10.000000 
L_front_hand02_02 0.000000 0.000000 0.000000 0.000000 0.000000 0.000000 10.000000 
L_front_hand03_02 0.000000 0.000000 0.000000 0.000000 0.000000 0.000000 10.000000 
R_forearm 0.000000 0.000000 0.000000 0.000000 0.000000 0.000000 10.000000 
R_front_hand 0.000000 0.000000 0.000000 0.000000 0.000000 0.000000 10.000000 
R_weapon_bone 0.000000 0.000000 0.000000 0.000000 0.000000 0.000000 10.000000 
R_front_hand01_01 0.000000 0.000000 0.000000 0.000000 0.000000 0.000000 10.000000 
R_front_hand02_01 0.000000 0.000000 0.000000 0.000000 0.000000 0.000000 10.000000 
R_front_hand03_01 0.000000 0.000000 0.000000 0.000000 0.000000 0.000000 10.000000 
R_front_hand01_02 0.000000 0.000000 0.000000 0.000000 0.000000 0.000000 10.000000 
R_front_hand02_02 0.000000 0.000000 0.000000 0.000000 0.000000 0.000000 10.000000 
R_front_hand03_02 0.000000 0.000000 0.000000 0.000000 0.000000 0.000000 10.000000 
null_rope01_connect 0.000000 0.000000 0.000000 0.000000 0.000000 0.000000 10.000000 
Rope1_Seg01 0.000000 0.000000 0.000000 0.000000 0.000000 0.000000 10.000000 
Rope1_Seg02 0.000000 0.000000 0.000000 0.000000 0.000000 0.000000 10.000000 
Rope1_Seg03 0.000000 0.000000 0.000000 0.000000 0.000000 0.000000 10.000000 
Rope1_Seg04 0.000000 0.000000 0.000000 0.000000 0.000000 0.000000 10.000000 
Rope1_Seg05 0.000000 0.000000 0.000000 0.000000 0.000000 0.000000 10.000000 
Rope1_Seg06 0.000000 0.000000 0.000000 0.000000 0.000000 0.000000 10.000000 
Rope1_Seg07 0.000000 0.000000 0.000000 0.000000 0.000000 0.000000 10.000000 
Rope1_Seg09 0.000000 0.000000 0.000000 0.000000 0.000000 0.000000 10.000000 
L_mid_hand01 0.000000 0.000000 0.000000 0.000000 0.000000 0.000000 10.000000 
L_mid_hand02 0.000000 0.000000 0.000000 0.000000 0.000000 0.000000 10.000000 
L_mid_hand03 0.000000 0.000000 0.000000 0.000000 0.000000 0.000000 10.000000 
null_rope02_connect 0.000000 0.000000 0.000000 0.000000 0.000000 0.000000 10.000000 
Rope2_Seg01 0.000000 0.000000 0.000000 0.000000 0.000000 0.000000 10.000000 
Rope2_Seg02 0.000000 0.000000 0.000000 0.000000 0.000000 0.000000 10.000000 
Rope2_Seg03 0.000000 0.000000 0.000000 0.000000 0.000000 0.000000 10.000000 
Rope2_Seg04 0.000000 0.000000 0.000000 0.000000 0.000000 0.000000 10.000000 
Rope2_Seg05 0.000000 0.000000 0.000000 0.000000 0.000000 0.000000 10.000000 
Rope2_Seg06 0.000000 0.000000 0.000000 0.000000 0.000000 0.000000 10.000000 
Rope2_Seg07 0.000000 0.000000 0.000000 0.000000 0.000000 0.000000 10.000000 
Rope2_Seg09 0.000000 0.000000 0.000000 0.000000 0.000000 0.000000 10.000000 
R_mid_hand01 0.000000 0.000000 0.000000 0.000000 0.000000 0.000000 10.000000 
R_mid_hand02 0.000000 0.000000 0.000000 0.000000 0.000000 0.000000 10.000000 
R_mid_hand03 0.000000 0.000000 0.000000 0.000000 0.000000 0.000000 10.000000 
spine02 0.000000 0.000000 0.000000 0.000000 0.000000 0.000000 10.000000 
spine03 0.000000 0.000000 0.000000 0.000000 0.000000 0.000000 10.000000 
pelvis 0.000000 0.000000 0.000000 0.000000 0.000000 0.000000 10.000000 
null_rope03_connect 0.000000 0.000000 0.000000 0.000000 0.000000 0.000000 10.000000 
null_rope04_connect 0.000000 0.000000 0.000000 0.000000 0.000000 0.000000 10.000000 
Rope3_Seg01 0.000000 0.000000 0.000000 0.000000 0.000000 0.000000 10.000000 
Rope3_Seg02 0.000000 0.000000 0.000000 0.000000 0.000000 0.000000 10.000000 
Rope3_Seg03 0.000000 0.000000 0.000000 0.000000 0.000000 0.000000 10.000000 
Rope3_Seg04 0.000000 0.000000 0.000000 0.000000 0.000000 0.000000 10.000000 
Rope3_Seg05 0.000000 0.000000 0.000000 0.000000 0.000000 0.000000 10.000000 
Rope3_Seg06 0.000000 0.000000 0.000000 0.000000 0.000000 0.000000 10.000000 
Rope3_Seg07 0.000000 0.000000 0.000000 0.000000 0.000000 0.000000 10.000000 
Rope3_Seg08 0.000000 0.000000 0.000000 0.000000 0.000000 0.000000 10.000000 
Rope3_Seg09 0.000000 0.000000 0.000000 0.000000 0.000000 0.000000 10.000000 
R_rear_hand01 0.000000 0.000000 0.000000 0.000000 0.000000 0.000000 10.000000 
R_rear_hand02 0.000000 0.000000 0.000000 0.000000 0.000000 0.000000 10.000000 
R_rear_hand03 0.000000 0.000000 0.000000 0.000000 0.000000 0.000000 10.000000 
Rope4_Seg01 0.000000 0.000000 0.000000 0.000000 0.000000 0.000000 10.000000 
Rope4_Seg02 0.000000 0.000000 0.000000 0.000000 0.000000 0.000000 10.000000 
Rope4_Seg03 0.000000 0.000000 0.000000 0.000000 0.000000 0.000000 10.000000 
Rope4_Seg04 0.000000 0.000000 0.000000 0.000000 0.000000 0.000000 10.000000 
Rope4_Seg05 0.000000 0.000000 0.000000 0.000000 0.000000 0.000000 10.000000 
Rope4_Seg06 0.000000 0.000000 0.000000 0.000000 0.000000 0.000000 10.000000 
Rope4_Seg07 0.000000 0.000000 0.000000 0.000000 0.000000 0.000000 10.000000 
Rope4_Seg08 0.000000 0.000000 0.000000 0.000000 0.000000 0.000000 10.000000 
Rope4_Seg09 0.000000 0.000000 0.000000 0.000000 0.000000 0.000000 10.000000 
L_rear_hand01 0.000000 0.000000 0.000000 0.000000 0.000000 0.000000 10.000000 
L_rear_hand02 0.000000 0.000000 0.000000 0.000000 0.000000 0.000000 10.000000 
L_rear_hand03 0.000000 0.000000 0.000000 0.000000 0.000000 0.000000 10.000000 
#Beginning of Data. Separated by tabs
#Fr	Tx	Ty	Tz	Rx	Ry	Rz	SF
[MASTER]
38 -0.000354 2411.683350 0.000000 0.001660 0.001660 0.001660 2411.683350
39 -0.000354 2411.683350 0.000000 0.001660 0.001660 0.001660 2411.683350
[root]
38 -853.310974 181.245728 1348.299072 -105.224861 -33.869087 -93.055573 1605.895264
39 -849.043701 181.245728 1348.747681 -105.033417 -33.856129 -93.056770 1604.009277
[chest]
38 -84.512650 -34.090519 0.000000 -2.671865 -0.472557 173.624329 91.129311
39 -84.512650 -34.090519 0.000000 -2.753864 -0.435854 173.896179 91.129311
[L_mid_tent01]
38 27.688671 21.954556 -252.418335 -15.697520 59.511276 50.361214 254.879745
39 27.690557 21.953463 -252.430435 -17.481937 59.084278 48.233582 254.891846
[R_mid_tent01]
38 23.228794 24.509907 226.238495 172.955612 -27.364948 55.826019 228.744751
39 23.228794 24.509907 226.238495 173.224548 -27.588734 55.782951 228.744751
[spine01]
38 -0.361383 -0.195265 0.000000 0.001869 0.001420 15.534141 0.410763
39 -0.361383 -0.195265 0.000000 0.001869 0.001420 15.534141 0.410763
[Bip01_Neck]
38 165.484543 71.581718 0.000119 175.896118 1.177290 24.871183 180.302734
39 165.484543 71.581718 0.000119 175.896118 1.177290 24.871183 180.302734
[L_humerus]
38 -13.983130 -135.272980 -120.471481 -170.361084 40.677048 -56.695183 181.680161
39 -13.983130 -135.272980 -120.471481 -171.007507 40.971775 -56.781471 181.680161
[R_humerus]
38 -13.983309 -135.273102 125.287651 168.196091 -41.491482 -56.530033 184.909012
39 -13.983309 -135.273102 125.287651 168.516785 -41.590923 -56.508259 184.909012
[weapon_bone]
38 235.964890 -300.705902 0.000000 0.000000 -89.951546 -128.212341 382.234833
39 235.964890 -300.705902 0.000000 0.000000 -89.951546 -128.212341 382.234833
[Bip01_Head]
38 158.398071 95.748489 29.073128 3.220440 -5.205892 -55.454868 187.357880
39 158.399673 95.753616 29.072332 3.220440 -5.205892 -55.454868 187.361725
[eye_left_bone]
38 -24.626970 125.451866 -64.772606 0.000000 -90.000000 -99.840431 143.318359
39 -24.626970 125.451866 -64.772606 0.000000 -90.000000 -99.840431 143.318359
[eye_right_bone]
38 -24.626970 125.451866 64.327362 0.000000 -89.960434 80.159386 143.117676
39 -24.626970 125.451866 64.327362 0.000000 -89.960434 80.159386 143.117676
[L_forearm]
38 322.776093 0.000000 -0.000119 0.000256 -0.002333 -102.544266 322.776093
39 322.776093 0.000000 -0.000119 0.000267 -0.002332 -103.069496 322.776093
[L_front_hand]
38 241.149185 -0.042021 -3.300071 -178.667953 -1.835447 -27.422350 241.171753
39 241.149185 -0.042021 -3.300071 -178.667953 -1.835447 -27.422350 241.171753
[L_weapon_bone]
38 156.183838 0.000000 0.000000 0.000014 0.000007 0.000001 156.183838
39 156.183838 0.000000 0.000000 0.000014 0.000007 0.000001 156.183838
[L_front_hand01_01]
38 86.095154 20.947098 -0.655860 -0.366594 -0.477154 75.385574 88.609184
39 86.095154 20.947098 -0.655860 -0.366594 -0.477154 75.385574 88.609184
[L_front_hand02_01]
38 86.935165 -11.437475 24.513514 154.403519 -59.888931 -61.371990 91.046425
39 86.935165 -11.437475 24.513514 154.403519 -59.888931 -61.371990 91.046425
[L_front_hand03_01]
38 86.637497 -14.123976 -20.424902 -153.913849 58.118130 -62.702866 90.126129
39 86.637497 -14.123976 -20.424902 -153.913849 58.118122 -62.702866 90.126129
[L_front_hand01_02]
38 71.020905 -0.000179 0.000030 0.000334 -0.002323 -106.379684 71.020905
39 71.020905 -0.000179 0.000030 0.000334 -0.002323 -106.379700 71.020905
[L_front_hand02_02]
38 71.020927 -0.000119 0.000060 0.000334 -0.002323 -106.379684 71.020927
39 71.020927 -0.000119 0.000060 0.000334 -0.002323 -106.379700 71.020927
[L_front_hand03_02]
38 71.020905 -0.000060 0.000060 0.000334 -0.002323 -106.379684 71.020905
39 71.020905 -0.000060 0.000060 0.000334 -0.002323 -106.379700 71.020905
[R_forearm]
38 322.776428 -0.000060 0.000030 0.213074 -0.013197 -87.283409 322.776428
39 322.776428 -0.000060 0.000030 0.213123 -0.012382 -87.721603 322.776428
[R_front_hand]
38 238.847015 -0.006795 2.210259 -1.531694 0.790216 -51.443054 238.857239
39 238.847015 -0.006795 2.210259 -1.531694 0.790216 -51.443054 238.857239
[R_weapon_bone]
38 155.664093 0.002503 -0.000030 0.003487 0.001180 -90.988930 155.664078
39 155.664093 0.002503 -0.000030 0.003487 0.001180 -90.988930 155.664078
[R_front_hand01_01]
38 87.624611 14.231146 22.918642 -154.633499 -59.950619 61.746044 91.683487
39 87.624611 14.231146 22.918642 -154.633499 -59.950619 61.746044 91.683487
[R_front_hand02_01]
38 89.356956 14.367283 -19.491137 154.602661 58.302849 63.744389 92.579636
39 89.356956 14.367283 -19.491137 154.602661 58.302849 63.744389 92.579636
[R_front_hand03_01]
38 87.286232 -22.307278 -0.143439 0.162155 -0.423168 -75.767921 90.091743
39 87.286232 -22.307278 -0.143439 0.162155 -0.423168 -75.767906 90.091743
[R_front_hand01_02]
38 71.020905 0.000060 0.000119 0.002323 -0.000334 106.381714 71.020905
39 71.020905 0.000060 0.000119 0.002323 -0.000334 106.381714 71.020905
[R_front_hand02_02]
38 71.020844 -0.000030 -0.000119 0.002323 -0.000334 106.381714 71.020836
39 71.020844 -0.000030 -0.000119 0.002323 -0.000334 106.381714 71.020836
[R_front_hand03_02]
38 71.020905 0.000000 0.000030 0.002323 -0.000334 106.381714 71.020905
39 71.020905 0.000000 0.000030 0.002323 -0.000334 106.381714 71.020905
[null_rope01_connect]
38 328.732483 0.000000 -0.000238 -126.290146 -12.510779 -167.082275 328.732483
39 328.732483 0.000000 -0.000238 -126.256432 -12.794636 -165.992416 328.732483
[Rope1_Seg01]
38 2.191194 -7.073867 -2.903070 105.846115 -0.763959 -167.033646 7.954165
39 2.265727 -7.052206 -2.888870 106.529755 0.006495 -167.441818 7.950641
[Rope1_Seg02]
38 139.999863 -0.000179 0.000000 5.057929 -16.727570 3.792042 139.999863
39 139.999863 -0.000179 0.000000 4.922993 -16.318857 3.832296 139.999863
[Rope1_Seg03]
38 139.999924 0.000060 -0.000060 -3.673102 -37.242180 16.294197 139.999924
39 139.999924 0.000060 -0.000060 -3.124327 -36.150517 15.758802 139.999924
[Rope1_Seg04]
38 139.999924 -0.000060 -0.000119 -13.079579 -30.292343 19.395887 139.999924
39 139.999924 -0.000060 -0.000119 -12.857263 -30.518051 20.122684 139.999924
[Rope1_Seg05]
38 139.999832 0.000119 -0.000060 -14.493933 -14.224185 -1.963746 139.999832
39 139.999832 0.000119 -0.000060 -14.179200 -14.371515 -1.501938 139.999832
[Rope1_Seg06]
38 139.999954 0.000119 -0.000060 -20.691551 -13.271935 -16.346256 139.999954
39 139.999954 0.000119 -0.000060 -20.585415 -13.306817 -15.888697 139.999954
[Rope1_Seg07]
38 139.999985 0.000060 0.000000 -11.473196 -5.894626 -17.271029 139.999985
39 139.999985 0.000060 0.000000 -11.729280 -6.092166 -17.328733 139.999985
[Rope1_Seg09]
38 121.602913 0.000119 -0.000089 -89.793175 -1.359789 0.847147 121.602913
39 121.602913 0.000119 -0.000089 -89.793175 -1.359789 0.847147 121.602913
[L_mid_hand01]
38 103.859421 1.038730 8.195221 116.294914 -23.111715 -31.758038 104.187431
39 103.859421 1.038730 8.195221 116.294914 -23.111713 -31.758034 104.187431
[L_mid_hand02]
38 105.572853 -4.139662 -10.864139 -144.219833 17.447468 -35.360519 106.211075
39 105.572853 -4.139662 -10.864139 -144.219833 17.447468 -35.360519 106.211075
[L_mid_hand03]
38 104.641464 17.579376 -3.913581 -17.830780 17.153103 31.982925 106.179977
39 104.641464 17.579376 -3.913581 -17.830780 17.153103 31.982925 106.179977
[null_rope02_connect]
38 328.732849 0.000179 -0.000119 -63.050865 71.429993 50.268459 328.732849
39 328.732849 0.000179 -0.000119 -64.638466 71.460236 48.645893 328.732849
[Rope2_Seg01]
38 0.000057 0.000266 0.000038 -48.236862 44.987690 53.351749 0.000274
39 0.000057 0.000269 0.000039 -50.139606 45.026226 50.529774 0.000277
[Rope2_Seg02]
38 139.999741 -0.000060 -0.000119 -0.326559 2.211098 1.192462 139.999756
39 139.999741 -0.000060 -0.000119 -0.413972 2.009999 1.404178 139.999756
[Rope2_Seg03]
38 140.000107 0.000030 0.000000 -0.540604 3.121322 1.708752 140.000107
39 140.000107 0.000030 0.000000 -0.651478 2.827907 2.004174 140.000107
[Rope2_Seg04]
38 139.999802 0.000000 -0.000060 -1.076110 5.281996 2.615991 139.999802
39 139.999802 0.000000 -0.000060 -1.215210 4.820311 3.089419 139.999802
[Rope2_Seg05]
38 139.999985 -0.000060 0.000119 -3.824431 14.125372 5.608744 139.999985
39 139.999985 -0.000060 0.000119 -3.851195 12.603761 6.819817 139.999985
[Rope2_Seg06]
38 139.999893 -0.000030 -0.000119 -3.816239 -0.086376 9.109335 139.999893
39 139.999893 -0.000030 -0.000119 -3.471372 -1.092421 9.253278 139.999893
[Rope2_Seg07]
38 139.999893 0.000060 -0.000060 -0.750573 -5.432467 4.053645 139.999893
39 139.999893 0.000060 -0.000060 -0.687688 -5.068601 3.933942 139.999893
[Rope2_Seg09]
38 121.338966 0.000089 -0.000060 33.793236 -1.359788 -0.847141 121.338966
39 121.338966 0.000089 -0.000060 33.793236 -1.359788 -0.847141 121.338966
[R_mid_hand01]
38 104.680779 11.144459 -10.335981 -41.523792 25.424656 28.595957 105.778534
39 104.680779 11.144459 -10.335981 -41.523792 25.424656 28.595957 105.778534
[R_mid_hand02]
38 104.070427 2.443552 8.231699 72.847389 -32.746803 10.013901 104.424065
39 104.070427 2.443552 8.231699 72.847389 -32.746803 10.013901 104.424065
[R_mid_hand03]
38 106.028137 -11.221827 -5.996406 -167.901306 10.259192 -37.009720 106.788818
39 106.028137 -11.221827 -5.996406 -167.901306 10.259192 -37.009720 106.788818
[spine02]
38 129.756927 0.001550 0.000119 -0.245322 -4.052060 -4.355547 129.756927
39 129.756927 0.001550 0.000119 -0.245322 -4.052060 -4.355547 129.756927
[spine03]
38 78.613953 0.087280 -4.898813 0.369659 4.260734 -4.885720 78.766487
39 78.613960 0.087280 -4.898813 0.369659 4.260735 -4.885721 78.766495
[pelvis]
38 169.435242 0.051022 0.000000 -0.010007 -0.191417 -1.897554 169.435257
39 169.435242 0.051022 0.000000 -0.010007 -0.191417 -1.897554 169.435257
[null_rope03_connect]
38 -1.257226 -2.466202 137.391083 -137.385208 -73.326057 -103.460037 137.418976
39 -1.257226 -2.466202 137.391083 -137.285309 -73.515091 -103.568306 137.418976
[null_rope04_connect]
38 -1.259640 -2.480268 -137.844437 -137.385208 -73.326057 -103.460037 137.872513
39 -1.259640 -2.480268 -137.844437 -137.285309 -73.515091 -103.568306 137.872513
[Rope3_Seg01]
38 -0.000007 0.000151 -0.000075 -12.262609 -10.073998 18.611078 0.000168
39 -0.000007 0.000155 -0.000077 -6.510614 -12.223191 17.312542 0.000173
[Rope3_Seg02]
38 139.999924 -0.000119 0.000060 1.137649 2.264425 3.883455 139.999924
39 139.999924 -0.000119 0.000060 -0.429094 2.574174 3.737543 139.999924
[Rope3_Seg03]
38 139.999924 -0.000119 0.000119 0.878151 3.464376 5.715912 139.999924
39 139.999924 -0.000119 0.000119 -0.058548 3.803192 5.643188 139.999924
[Rope3_Seg04]
38 139.999924 0.000119 0.000000 0.887747 5.703302 9.191972 139.999924
39 139.999924 0.000119 0.000000 0.308499 6.162245 9.280304 139.999924
[Rope3_Seg05]
38 139.999924 -0.000238 0.000060 3.044561 12.487554 20.966049 139.999924
39 139.999924 -0.000238 0.000060 2.827631 13.346385 21.476822 139.999924
[Rope3_Seg06]
38 139.999893 -0.000119 -0.000060 2.315581 11.826718 18.389751 139.999893
39 139.999893 -0.000119 -0.000060 2.311396 12.350835 18.711243 139.999893
[Rope3_Seg07]
38 139.999771 0.000060 -0.000119 0.298518 2.312762 1.471950 139.999771
39 139.999771 0.000060 -0.000119 0.291516 2.579340 1.776841 139.999771
[Rope3_Seg08]
38 139.999985 -0.000060 0.000000 0.487608 2.859369 2.814263 139.999985
39 139.999985 -0.000060 0.000000 0.489627 3.093595 3.040664 139.999985
[Rope3_Seg09]
38 90.185997 -0.000179 -0.000060 89.793228 -1.359877 -0.847183 90.185997
39 90.185997 -0.000179 -0.000060 89.793228 -1.359877 -0.847183 90.185997
[R_rear_hand01]
38 103.366196 -6.073594 -10.757982 -158.627975 33.644119 -23.327250 104.101845
39 103.366196 -6.073594 -10.757982 -158.627975 33.644127 -23.327253 104.101845
[R_rear_hand02]
38 100.509819 12.039542 -7.992327 -36.327801 26.496244 23.332451 101.543350
39 100.509819 12.039542 -7.992327 -36.327797 26.496241 23.332451 101.543350
[R_rear_hand03]
38 101.539970 5.215704 5.435467 73.054970 -27.152534 27.950705 101.819031
39 101.539970 5.215704 5.435467 73.054977 -27.152536 27.950705 101.819031
[Rope4_Seg01]
38 -0.000033 0.000029 0.000115 88.754837 -37.218651 -158.406342 0.000123
39 -0.000033 0.000028 0.000114 88.813545 -37.203140 -158.479904 0.000122
[Rope4_Seg02]
38 139.999985 0.000060 0.000119 17.637587 -11.426165 6.735492 139.999985
39 139.999985 0.000060 0.000119 17.638393 -11.430100 6.697005 139.999985
[Rope4_Seg03]
38 139.999924 0.000000 -0.000238 29.590685 -12.095831 14.185600 139.999924
39 139.999924 0.000000 -0.000238 29.628288 -12.089937 14.106309 139.999924
[Rope4_Seg04]
38 139.999985 0.000000 0.000119 20.537203 -0.886880 18.628086 139.999985
39 139.999985 0.000000 0.000119 20.573463 -0.903962 18.549383 139.999985
[Rope4_Seg05]
38 139.999802 -0.000060 -0.000119 11.517796 1.385748 15.227635 139.999802
39 139.999802 -0.000060 -0.000119 11.588117 1.353502 15.206058 139.999802
[Rope4_Seg06]
38 139.999924 0.000000 0.000060 11.697890 0.737580 22.209267 139.999924
39 139.999924 0.000000 0.000060 11.774734 0.697527 22.156471 139.999924
[Rope4_Seg07]
38 139.999802 0.000000 0.000000 6.054764 4.854167 20.343037 139.999802
39 139.999802 0.000000 0.000000 6.107304 4.833359 20.263952 139.999802
[Rope4_Seg08]
38 139.999924 0.000000 0.000119 -0.243975 3.893607 9.992240 139.999924
39 139.999924 0.000000 0.000119 -0.214731 3.898359 9.963426 139.999924
[Rope4_Seg09]
38 90.185791 0.000060 0.000060 -135.617828 2.228885 0.850567 90.185791
39 90.185791 0.000060 0.000060 -135.617828 2.228885 0.850567 90.185791
[L_rear_hand01]
38 101.696655 -8.392275 -7.654577 -33.685818 -15.212527 149.017090 102.329041
39 101.696655 -8.392275 -7.654577 -33.685818 -15.212530 149.017090 102.329041
[L_rear_hand02]
38 102.726799 -1.568258 5.773216 83.407906 30.330435 172.796509 102.900848
39 102.726799 -1.568258 5.773216 83.407906 30.330435 172.796509 102.900848
[L_rear_hand03]
38 104.552910 9.721220 -10.420293 -160.801239 -15.606593 -150.211823 105.519653
39 104.552910 9.721220 -10.420293 -160.801239 -15.606593 -150.211823 105.519653
